<?xml version="1.0" encoding="UTF-8" standalone="no"?>
<svg width="320px" height="63px" viewBox="0 0 320 63" version="1.1" xmlns="http://www.w3.org/2000/svg" xmlns:xlink="http://www.w3.org/1999/xlink" xmlns:sketch="http://www.bohemiancoding.com/sketch/ns">
    <!-- Generator: Sketch 3.3.2 (12043) - http://www.bohemiancoding.com/sketch -->
    <title>Slice 1</title>
    <desc>Created with Sketch.</desc>
    <defs>
        <rect id="path-1" x="0" y="29" width="182" height="31"></rect>
    </defs>
    <g id="Page-1" stroke="none" stroke-width="1" fill="none" fill-rule="evenodd" sketch:type="MSPage">
        <g id="Group-Copy" sketch:type="MSLayerGroup" transform="translate(1.000000, 2.000000)">
            <path d="M186.5,29.5 L189.662278,29.5" id="Line" stroke="#A0B7DA" stroke-linecap="square" stroke-dasharray="2,2,2,1" sketch:type="MSShapeGroup"></path>
            <path d="M253.5,29.5 L256.662278,29.5" id="Line-Copy-4" stroke="#A0B7DA" stroke-linecap="square" stroke-dasharray="2,2,2,1" sketch:type="MSShapeGroup"></path>
            <rect id="Rectangle-4" stroke="#A0B7DA" stroke-dasharray="1,1,1,1" fill-opacity="0.189890392" sketch:type="MSShapeGroup" x="0" y="0" width="182" height="60"></rect>
            <g id="Rectangle-5">
                <use fill-opacity="0.910000026" fill="#97B0D7" fill-rule="evenodd" sketch:type="MSShapeGroup" xlink:href="#path-1"></use>
                <use fill="none" xlink:href="#path-1"></use>
            </g>
            <path d="M221,58 C237.016258,58 250,45.0162577 250,29 C250,12.9837423 237.016258,0 221,0 C204.983742,0 192,12.9837423 192,29 C192,45.0162577 204.983742,58 221,58 Z" id="Oval-1" stroke="#A0B7DA" fill="#F9F9F9" sketch:type="MSShapeGroup"></path>
            <path d="M288,58 C304.016258,58 317,45.0162577 317,29 C317,12.9837423 304.016258,0 288,0 C271.983742,0 259,12.9837423 259,29 C259,45.0162577 271.983742,58 288,58 Z" id="Oval-1-Copy" stroke="#A0B7DA" stroke-width="4" stroke-dasharray="1,1,1,4" fill="#F9F9F9" sketch:type="MSShapeGroup"></path>
        </g>
    </g>
</svg>